<svg width="40" height="40" viewBox="0 0 40 40" fill="none" xmlns="http://www.w3.org/2000/svg">
<path fill-rule="evenodd" clip-rule="evenodd" d="M8.68556 10.3526C9.15564 9.88248 9.91778 9.88248 10.3879 10.3526L29.6471 29.6118C30.1172 30.0819 30.1172 30.844 29.6471 31.3141C29.177 31.7842 28.4149 31.7842 27.9448 31.3141L8.68556 12.0549C8.21549 11.5848 8.21549 10.8226 8.68556 10.3526Z" fill="#323232"/>
<path fill-rule="evenodd" clip-rule="evenodd" d="M29.6471 10.3526C30.1172 10.8226 30.1172 11.5848 29.6471 12.0549L10.3879 31.3141C9.91778 31.7842 9.15564 31.7842 8.68556 31.3141C8.21549 30.844 8.21549 30.0819 8.68556 29.6118L27.9448 10.3526C28.4149 9.88248 29.177 9.88248 29.6471 10.3526Z" fill="#323232"/>
</svg>
