<svg width="24" height="24" viewBox="0 0 24 24" fill="none" xmlns="http://www.w3.org/2000/svg">
<path fill-rule="evenodd" clip-rule="evenodd" d="M7.41658 7.54732C5.95903 8.67372 4.67826 10.2235 3.77782 11.8887C3.74078 11.9574 3.74107 12.042 3.77804 12.1107C4.67848 13.7763 5.95917 15.3261 7.41661 16.4526C8.87825 17.5823 10.4685 18.25 12.0001 18.25C13.5317 18.25 15.1219 17.5823 16.5836 16.4527C18.0412 15.3263 19.3219 13.7765 20.2224 12.1113C20.259 12.0428 20.259 11.9579 20.2222 11.8895C19.3218 10.2238 18.0411 8.67389 16.5836 7.54742C15.1219 6.41774 13.5317 5.75 12.0001 5.75C10.4685 5.75 8.87824 6.41774 7.41658 7.54732ZM6.49935 6.36043C8.13195 5.09876 10.0367 4.25 12.0001 4.25C13.9635 4.25 15.8683 5.09876 17.5009 6.36058C19.1376 7.62557 20.5503 9.34208 21.5419 11.1763C21.8188 11.6896 21.8191 12.3108 21.5422 12.8241C20.5506 14.6579 19.1375 16.3747 17.5008 17.6396C15.8682 18.9012 13.9635 19.75 12.0001 19.75C10.0367 19.75 8.13193 18.9012 6.49932 17.6394C4.86261 16.3744 3.44988 14.6579 2.45832 12.8237C2.1814 12.3104 2.18111 11.6892 2.45803 11.1759C3.44959 9.34213 4.86265 7.62528 6.49935 6.36043Z" fill="#C2C2C2"/>
<path fill-rule="evenodd" clip-rule="evenodd" d="M13.6163 10.3838C12.7237 9.49115 11.2765 9.49115 10.3838 10.3838C9.49122 11.2764 9.49122 12.7236 10.3838 13.6162C11.2765 14.5089 12.7237 14.5089 13.6163 13.6162C14.5089 12.7236 14.5089 11.2764 13.6163 10.3838ZM14.6265 9.37359C13.176 7.92307 10.8242 7.92307 9.37367 9.37359C7.92315 10.8241 7.92315 13.1759 9.37367 14.6264C10.8242 16.0769 13.176 16.0769 14.6265 14.6264C16.077 13.1759 16.077 10.8241 14.6265 9.37359Z" fill="#C2C2C2"/>
</svg>
