<svg width="32" height="32" viewBox="0 0 32 32" fill="none" xmlns="http://www.w3.org/2000/svg">
<path d="M29 13.0132C29 15.1552 28.1596 17.141 26.9818 18.8752C25.8031 20.6106 24.249 22.1506 22.7201 23.4233C21.1872 24.6993 19.6521 25.7309 18.487 26.4429C17.9037 26.7993 17.4078 27.0786 17.0469 27.271C16.8676 27.3666 16.7168 27.4438 16.6016 27.4989C16.5452 27.5258 16.4876 27.5517 16.4362 27.5731C16.4118 27.5832 16.3758 27.5975 16.3359 27.6108C16.3161 27.6175 16.2832 27.6272 16.2435 27.6369C16.2183 27.643 16.1231 27.6668 16 27.6668C15.8769 27.6668 15.7817 27.643 15.7565 27.6369C15.7168 27.6272 15.6839 27.6175 15.6641 27.6108C15.6242 27.5975 15.5882 27.5832 15.5638 27.5731C15.5124 27.5517 15.4548 27.5258 15.3984 27.4989C15.2832 27.4438 15.1324 27.3666 14.9531 27.271C14.5922 27.0786 14.0963 26.7993 13.513 26.4429C12.3479 25.7309 10.8128 24.6993 9.27995 23.4233C7.751 22.1506 6.19687 20.6106 5.01823 18.8752C3.84044 17.141 3 15.1552 3 13.0132C3.00016 8.91281 6.14162 4.33366 11.0664 4.3335C13.287 4.3335 14.9036 5.22216 16 6.19417C17.0964 5.22216 18.713 4.3335 20.9336 4.3335C25.8584 4.33366 28.9998 8.91281 29 13.0132Z" fill="#D30404"/>
</svg>
