<svg width="32" height="32" viewBox="0 0 32 32" fill="none" xmlns="http://www.w3.org/2000/svg">
    <path d="M27 13.0129C26.9998 9.70032 24.4616 6.33342 20.9336 6.33325C18.8829 6.33325 17.5516 7.34655 16.7578 8.26685C16.5679 8.48709 16.2908 8.6132 16 8.6132C15.7092 8.6132 15.4321 8.48709 15.2422 8.26685C14.4484 7.34655 13.1171 6.33325 11.0664 6.33325C7.53838 6.33342 5.00016 9.70032 5 13.0129C5 14.6241 5.63319 16.2218 6.67188 17.7512C7.7098 19.2794 9.11563 20.6844 10.5599 21.8866C12.0001 23.0854 13.4513 24.0605 14.556 24.7356C15.1075 25.0726 15.5687 25.3321 15.8932 25.5051C15.9305 25.525 15.9669 25.5425 16 25.5598C16.0331 25.5425 16.0695 25.525 16.1068 25.5051C16.4313 25.3321 16.8925 25.0726 17.444 24.7356C18.5487 24.0605 19.9999 23.0854 21.4401 21.8866C22.8844 20.6844 24.2902 19.2794 25.3281 17.7512C26.3668 16.2218 27 14.6241 27 13.0129ZM29 13.0129C29 15.1549 28.1596 17.1408 26.9818 18.8749C25.8031 20.6103 24.249 22.1504 22.7201 23.4231C21.1872 24.699 19.6521 25.7307 18.487 26.4426C17.9037 26.799 17.4078 27.0783 17.0469 27.2708C16.8676 27.3663 16.7168 27.4436 16.6016 27.4986C16.5452 27.5255 16.4876 27.5515 16.4362 27.5728C16.4118 27.583 16.3758 27.5972 16.3359 27.6106C16.3161 27.6172 16.2832 27.627 16.2435 27.6366C16.2183 27.6428 16.1231 27.6666 16 27.6666C15.8769 27.6666 15.7817 27.6428 15.7565 27.6366C15.7168 27.627 15.6839 27.6172 15.6641 27.6106C15.6242 27.5972 15.5882 27.583 15.5638 27.5728C15.5124 27.5515 15.4548 27.5255 15.3984 27.4986C15.2832 27.4436 15.1324 27.3663 14.9531 27.2708C14.5922 27.0783 14.0963 26.799 13.513 26.4426C12.3479 25.7307 10.8128 24.699 9.27995 23.4231C7.751 22.1504 6.19687 20.6103 5.01823 18.8749C3.84044 17.1408 3 15.1549 3 13.0129C3.00016 8.91256 6.14162 4.33341 11.0664 4.33325C13.287 4.33325 14.9036 5.22191 16 6.19393C17.0964 5.22191 18.713 4.33325 20.9336 4.33325C25.8584 4.33341 28.9998 8.91256 29 13.0129Z" fill="white"/>
</svg>