<svg width="32" height="32" viewBox="0 0 32 32" fill="none" xmlns="http://www.w3.org/2000/svg">
    <path fill-rule="evenodd" clip-rule="evenodd" d="M12.5334 21.7882C9.86447 21.7882 7.655 23.8937 7.655 26.6666C7.655 27.2124 7.21254 27.6549 6.66673 27.6549C6.12093 27.6549 5.67847 27.2124 5.67847 26.6666C5.67847 22.7728 8.80233 19.8117 12.5334 19.8117H19.3334C23.2272 19.8117 26.1883 22.9355 26.1883 26.6666C26.1883 27.2124 25.7459 27.6549 25.2001 27.6549C24.6543 27.6549 24.2118 27.2124 24.2118 26.6666C24.2118 23.9977 22.1063 21.7882 19.3334 21.7882H12.5334Z" fill="white"/>
    <path fill-rule="evenodd" clip-rule="evenodd" d="M19.3036 7.65108C17.4219 5.89053 14.5634 5.89398 12.6854 7.66145C10.8771 9.36341 10.9183 12.3248 12.7283 14.2479C14.4302 16.0562 17.3916 16.015 19.3147 14.2051C21.1461 12.4814 21.1812 9.53991 19.3036 7.65108ZM20.6815 6.20139C18.0297 3.70932 13.9651 3.71054 11.3147 6.20505C8.5897 8.76976 8.81513 13.0083 11.2719 15.6186C13.8366 18.3436 18.0752 18.1182 20.6854 15.6615C23.3826 13.1229 23.3521 8.87498 20.7108 6.2298C20.7061 6.225 20.7013 6.22024 20.6964 6.21551C20.6915 6.21074 20.6865 6.20603 20.6815 6.20139Z" fill="white"/>
</svg>